<?xml version="1.0"?>
<svg xmlns="http://www.w3.org/2000/svg" height="512px" viewBox="0 0 512 512" width="512px"><path d="m60 121c33.085938 0 60-26.914062 60-60 0-32.894531-26.585938-61-60-61-33.425781 0-60 28.113281-60 61 0 33.085938 26.914062 60 60 60zm0-91c16.261719 0 30 14.195312 30 31 0 16.542969-13.457031 30-30 30s-30-13.457031-30-30c0-16.804688 13.738281-31 30-31zm0 0" fill="#D6372E"/><path d="m452 0c-33.425781 0-60 28.113281-60 61 0 33.085938 26.914062 60 60 60s60-26.914062 60-60c0-32.894531-26.585938-61-60-61zm0 91c-16.542969 0-30-13.457031-30-30 0-16.804688 13.738281-31 30-31s30 14.195312 30 31c0 16.542969-13.457031 30-30 30zm0 0" fill="#D6372E"/><path d="m512 174.28125c0-29.378906-23.902344-53.28125-53.28125-53.28125-16.683594 0-32.617188 7.96875-42.625 21.3125l-29.015625 38.6875h-115.078125v60h-32v-60h-115.078125l-29.015625-38.6875c-10.007812-13.34375-25.941406-21.3125-42.625-21.3125-29.378906 0-53.28125 23.902344-53.28125 53.28125v216.71875h90v121h90v-211h-90v-30h151v211h-31v30h92v-30h-31v-211h151v30h-90v211h90v-121h90zm-302 66.71875h-150v90h90v151h-30v-121h-90v-186.71875c0-12.835938 10.445312-23.28125 23.28125-23.28125 7.289062 0 14.25 3.480469 18.625 9.3125l38.015625 50.6875h100.078125zm272 120h-90v121h-30v-151h90v-90h-150v-30h100.078125l38.015625-50.6875c4.375-5.832031 11.335938-9.3125 18.625-9.3125 12.835938 0 23.28125 10.445312 23.28125 23.28125zm0 0" fill="#D6372E"/></svg>
