<svg version="1.1" preserveAspectRatio='none' id="Layer_1" xmlns="http://www.w3.org/2000/svg" xmlns:xlink="http://www.w3.org/1999/xlink" x="0px" y="0px"
	 viewBox="-92 183.3 426.7 426.7" style="enable-background:new -92 183.3 426.7 426.7;" xml:space="preserve">
<style type="text/css">
	.st0{clip-path:url(#SVGID_2_);fill:#F05228;}
	.st1{fill:#F05228;}
</style>
<g>
	<defs>
		
			<rect id="SVGID_1_" x="-92" y="183.3" transform="matrix(1 1.148169e-003 -1.148169e-003 1 0.4555 -0.139)" width="426.7" height="426.7"/>
	</defs>
	<clipPath id="SVGID_2_">
		<use xlink:href="#SVGID_1_"  style="overflow:visible;"/>
	</clipPath>
	<path class="st0" d="M422.6,489.7c54.8-63.1,130.1-83.8-91.1-200.3c-14.8-7.8-122.2-14.9-194.5-5.3c-17.2,2.3-37.9,4.8-59,9.3
		c-12.7,2.7-23.5,6.2-40.2,9.9c-23.4,6.6-43.6,14.7-61,20.2C-151.5,364.1-125.3,384-125.3,384s-83.2,113.3,66.8,266.1
		c23.4,23.8,178.5-18,214-11.8C431.5,731.1,344.1,580.3,422.6,489.7z"/>
</g>
<path class="st1" d="M71.5,302.8"/>
<path class="st1" d="M76,308.9"/>
<path class="st1" d="M211.5,288.2"/>
</svg>