<?xml version="1.0" encoding="utf-8"?>
<!-- Generator: Adobe Illustrator 19.0.0, SVG Export Plug-In . SVG Version: 6.00 Build 0)  -->
<svg version="1.1" id="Layer_1" xmlns="http://www.w3.org/2000/svg" xmlns:xlink="http://www.w3.org/1999/xlink" x="0px" y="0px"
	 viewBox="-92 183.3 426.7 426.7" style="enable-background:new -92 183.3 426.7 426.7;" xml:space="preserve">
<style type="text/css">
	.st0{clip-path:url(#SVGID_2_);fill:#F05228;}
</style>
<g>
	<defs>
		<rect id="SVGID_1_" x="-92" y="183.3" width="426.7" height="426.7"/>
	</defs>
	<clipPath id="SVGID_2_">
		<use xlink:href="#SVGID_1_"  style="overflow:visible;"/>
	</clipPath>
	<path class="st0" d="M294,622.8c0.6,0.4,1.1,0.8,1.6,1.3c1.8-0.3,3.6-0.6,5.5-1C298.8,622.9,296.4,622.8,294,622.8z"/>
	<path class="st0" d="M345.5,420c-0.4-8.8-0.7-17.6-0.8-26.4c0,0,0,0,0,0c-1.3-0.9-2.2-2.3-2.2-4.3c0-29,19.7-104,20.5-133
		c-84.9-20.2-464.9,209.1-456,295c3,29-18.1,43.6-6,74.6c0,0,0,0,0,0c21.1,0.3,41.9,1.3,63,4.3c-3.3-0.4-6.6-0.9-10-1.3
		c18,1.8,35.8,5.1,53.6,7.7c0,0,0,0,0,0c1.3,0,2.5,0,3.8,0.1c16.8,0.2,33.5-0.6,50.3-0.9c33.4-0.6,66.8,2,100.3,1.1
		c0.3,0,0.7,0,1,0.1c0,0,0.1,0,0.1,0c25.8-7.2,51.7-2.3,77.7-2c0,0,0,0,0,0c0.5-1.9,1.8-3.5,3.8-3.9c28.4-5.3,57.9-3.5,86.5-0.2
		l3.7,0.4c0.1,0,0.2,0,0.2-0.1c13.3-37.6-4.7-137.8,3.1-168.8c0,0,0,0,0,0C338.4,447.2,341.3,433.1,345.5,420
		C345.5,420,345.5,420,345.5,420z"/>
</g>
</svg>